<svg xmlns="http://www.w3.org/2000/svg" xmlns:xlink="http://www.w3.org/1999/xlink" width="2419" zoomAndPan="magnify" viewBox="0 0 1814.25 482.249999" height="643" preserveAspectRatio="xMidYMid meet" version="1.0"><defs><g/><clipPath id="17e508b793"><path d="M 1.035156 0 L 1812.46875 0 L 1812.46875 481.5 L 1.035156 481.5 Z M 1.035156 0 " clip-rule="nonzero"/></clipPath><clipPath id="ae3dae614c"><path d="M 0.0351562 0 L 1811.46875 0 L 1811.46875 481.5 L 0.0351562 481.5 Z M 0.0351562 0 " clip-rule="nonzero"/></clipPath><clipPath id="f9ba395bac"><rect x="0" width="1812" y="0" height="482"/></clipPath><clipPath id="b00f0d3889"><rect x="0" width="1812" y="0" height="482"/></clipPath></defs><g clip-path="url(#17e508b793)"><g transform="matrix(1, 0, 0, 1, 1, -0.000000000000061628)"><g clip-path="url(#b00f0d3889)"><g clip-path="url(#ae3dae614c)"><g transform="matrix(1, 0, 0, 1, 0, -0.000000000000061628)"><g clip-path="url(#f9ba395bac)"><g fill="#377850" fill-opacity="1"><g transform="translate(0.0341634, 302.808474)"><g><path d="M 313.8125 -233.4375 L 319.46875 -54.921875 C 319.738281 -46.304688 321.148438 -39.910156 323.703125 -35.734375 C 326.265625 -31.566406 329.160156 -28.40625 332.390625 -26.25 C 335.617188 -24.09375 338.441406 -22.003906 340.859375 -19.984375 C 343.285156 -17.972656 344.5 -14.675781 344.5 -10.09375 C 344.5 -6.320312 342.953125 -3.695312 339.859375 -2.21875 C 336.765625 -0.738281 331.71875 0 324.71875 0 L 271.8125 0 C 264.269531 0 258.816406 -0.738281 255.453125 -2.21875 C 252.085938 -3.695312 250.40625 -6.320312 250.40625 -10.09375 C 250.40625 -14.40625 251.546875 -17.632812 253.828125 -19.78125 C 256.117188 -21.9375 258.8125 -24.09375 261.90625 -26.25 C 265.007812 -28.40625 267.703125 -31.632812 269.984375 -35.9375 C 272.273438 -40.25 273.285156 -46.578125 273.015625 -54.921875 L 269.390625 -222.9375 L 179.328125 -27.0625 C 177.972656 -24.363281 176.421875 -22.273438 174.671875 -20.796875 C 172.921875 -19.316406 170.160156 -18.171875 166.390625 -17.359375 C 162.359375 -16.285156 159.265625 -16.351562 157.109375 -17.5625 C 154.953125 -18.78125 153.335938 -20.460938 152.265625 -22.609375 L 69.46875 -220.109375 L 63.8125 -49.671875 C 63.539062 -42.140625 64.347656 -36.421875 66.234375 -32.515625 C 68.117188 -28.609375 70.40625 -25.578125 73.09375 -23.421875 C 75.789062 -21.265625 78.21875 -19.3125 80.375 -17.5625 C 82.53125 -15.8125 83.609375 -13.1875 83.609375 -9.6875 C 83.609375 -5.914062 82.125 -3.359375 79.15625 -2.015625 C 76.195312 -0.671875 71.617188 0 65.421875 0 L 33.921875 0 C 21.535156 0 15.34375 -3.226562 15.34375 -9.6875 C 15.34375 -12.925781 16.488281 -15.484375 18.78125 -17.359375 C 21.070312 -19.242188 23.765625 -21.265625 26.859375 -23.421875 C 29.953125 -25.578125 32.707031 -28.609375 35.125 -32.515625 C 37.550781 -36.421875 38.898438 -42.140625 39.171875 -49.671875 L 46.84375 -233.4375 C 47.113281 -240.4375 46.238281 -245.820312 44.21875 -249.59375 C 42.195312 -253.363281 39.773438 -256.390625 36.953125 -258.671875 C 34.128906 -260.960938 31.570312 -263.117188 29.28125 -265.140625 C 26.988281 -267.160156 25.84375 -269.921875 25.84375 -273.421875 C 25.84375 -276.921875 27.117188 -279.34375 29.671875 -280.6875 C 32.234375 -282.039062 36.75 -282.71875 43.21875 -282.71875 L 82.796875 -282.71875 C 88.984375 -282.71875 93.425781 -279.753906 96.125 -273.828125 L 177.703125 -80.375 L 266.5625 -273.828125 C 269.25 -279.753906 273.691406 -282.71875 279.890625 -282.71875 L 317.046875 -282.71875 C 323.503906 -282.71875 328.078125 -282.039062 330.765625 -280.6875 C 333.460938 -279.34375 334.8125 -276.921875 334.8125 -273.421875 C 334.8125 -269.921875 333.664062 -267.160156 331.375 -265.140625 C 329.09375 -263.117188 326.535156 -261.097656 323.703125 -259.078125 C 320.878906 -257.066406 318.457031 -254.175781 316.4375 -250.40625 C 314.414062 -246.632812 313.539062 -240.976562 313.8125 -233.4375 Z M 313.8125 -233.4375 "/></g></g></g><g fill="#377850" fill-opacity="1"><g transform="translate(333.539904, 302.808474)"><g><path d="M 188.203125 -123.578125 L 188.203125 -50.890625 C 188.203125 -42.546875 189.476562 -36.890625 192.03125 -33.921875 C 194.59375 -30.960938 197.625 -29.347656 201.125 -29.078125 C 204.625 -28.804688 207.648438 -28.535156 210.203125 -28.265625 C 212.765625 -28.003906 214.046875 -26.390625 214.046875 -23.421875 C 214.046875 -19.648438 212.226562 -15.742188 208.59375 -11.703125 C 204.96875 -7.671875 200.460938 -4.375 195.078125 -1.8125 C 189.691406 0.738281 184.171875 2.015625 178.515625 2.015625 C 170.972656 2.015625 164.238281 0 158.3125 -4.03125 C 152.394531 -8.070312 148.359375 -15.882812 146.203125 -27.46875 C 137.316406 -16.425781 126.945312 -8.476562 115.09375 -3.625 C 103.25 1.21875 91.132812 3.640625 78.75 3.640625 C 65.289062 3.640625 53.175781 1.082031 42.40625 -4.03125 C 31.632812 -9.15625 23.148438 -16.289062 16.953125 -25.4375 C 10.765625 -34.59375 7.671875 -45.226562 7.671875 -57.34375 C 7.671875 -70.269531 11.304688 -81.710938 18.578125 -91.671875 C 25.847656 -101.640625 36.078125 -109.382812 49.265625 -114.90625 C 62.460938 -120.425781 77.8125 -123.1875 95.3125 -123.1875 C 101.507812 -123.1875 108.914062 -122.710938 117.53125 -121.765625 C 126.144531 -120.828125 135.164062 -118.472656 144.59375 -114.703125 C 143.507812 -134.085938 138.660156 -147.75 130.046875 -155.6875 C 121.429688 -163.632812 109.046875 -167.609375 92.890625 -167.609375 C 83.203125 -167.609375 74.519531 -166.257812 66.84375 -163.5625 C 59.164062 -160.875 51.425781 -157.242188 43.625 -152.671875 C 39.851562 -150.242188 36.550781 -150.171875 33.71875 -152.453125 C 30.894531 -154.742188 30.960938 -158.316406 33.921875 -163.171875 C 37.421875 -168.285156 42.941406 -173.46875 50.484375 -178.71875 C 58.023438 -183.96875 67.046875 -188.410156 77.546875 -192.046875 C 88.046875 -195.679688 99.21875 -197.5 111.0625 -197.5 C 137.445312 -197.5 156.898438 -190.5625 169.421875 -176.6875 C 181.941406 -162.820312 188.203125 -145.117188 188.203125 -123.578125 Z M 95.71875 -21.8125 C 103.789062 -21.8125 111.53125 -23.695312 118.9375 -27.46875 C 126.34375 -31.238281 132.46875 -35.878906 137.3125 -41.390625 C 142.164062 -46.910156 144.59375 -52.5 144.59375 -58.15625 C 144.59375 -63.269531 144.59375 -67.507812 144.59375 -70.875 C 144.59375 -74.238281 144.457031 -79.691406 144.1875 -87.234375 C 143.914062 -91.816406 139.601562 -95.722656 131.25 -98.953125 C 122.90625 -102.179688 112.945312 -103.796875 101.375 -103.796875 C 86.289062 -103.796875 74.035156 -100.09375 64.609375 -92.6875 C 55.191406 -85.28125 50.617188 -75.117188 50.890625 -62.203125 C 51.429688 -49.816406 55.601562 -39.988281 63.40625 -32.71875 C 71.21875 -25.445312 81.988281 -21.8125 95.71875 -21.8125 Z M 95.71875 -21.8125 "/></g></g></g><g fill="#377850" fill-opacity="1"><g transform="translate(532.186742, 302.808474)"><g><path d="M 130.453125 -41.1875 C 133.953125 -44.15625 136.976562 -44.5625 139.53125 -42.40625 C 142.09375 -40.25 142.703125 -37.285156 141.359375 -33.515625 C 139.472656 -28.398438 136.035156 -22.878906 131.046875 -16.953125 C 126.066406 -11.035156 119.601562 -6.054688 111.65625 -2.015625 C 103.71875 2.015625 94.367188 4.03125 83.609375 4.03125 C 66.367188 4.03125 53.238281 -1.148438 44.21875 -11.515625 C 35.195312 -21.878906 30.6875 -36.890625 30.6875 -56.546875 L 30.6875 -73.09375 C 30.6875 -93.832031 30.820312 -112.613281 31.09375 -129.4375 C 31.363281 -146.269531 31.769531 -160.472656 32.3125 -172.046875 L 18.984375 -172.046875 C 14.398438 -172.046875 11.164062 -172.785156 9.28125 -174.265625 C 7.40625 -175.753906 6.46875 -177.976562 6.46875 -180.9375 C 6.46875 -184.976562 8.082031 -188.75 11.3125 -192.25 C 18.84375 -200.320312 26.710938 -207.789062 34.921875 -214.65625 C 43.140625 -221.519531 51.019531 -227.507812 58.5625 -232.625 C 62.332031 -235.050781 65.09375 -236.46875 66.84375 -236.875 C 68.59375 -237.28125 70.140625 -237.484375 71.484375 -237.484375 C 74.179688 -237.484375 76.132812 -236.472656 77.34375 -234.453125 C 78.550781 -232.429688 79.019531 -229.941406 78.75 -226.984375 C 78.488281 -222.128906 78.222656 -217.078125 77.953125 -211.828125 C 77.679688 -206.578125 77.410156 -200.585938 77.140625 -193.859375 L 117.53125 -193.859375 C 121.03125 -193.859375 123.988281 -193.1875 126.40625 -191.84375 C 128.832031 -190.5 129.507812 -187.132812 128.4375 -181.75 C 127.351562 -176.09375 125.265625 -172.585938 122.171875 -171.234375 C 119.078125 -169.890625 115.644531 -169.351562 111.875 -169.625 L 76.734375 -170.84375 C 76.460938 -159.800781 76.328125 -146.40625 76.328125 -130.65625 C 76.328125 -114.90625 76.0625 -95.71875 75.53125 -73.09375 C 75.257812 -57.476562 76.875 -46.171875 80.375 -39.171875 C 83.875 -32.171875 90.601562 -28.671875 100.5625 -28.671875 C 105.945312 -28.671875 111.332031 -29.945312 116.71875 -32.5 C 122.101562 -35.0625 126.679688 -37.957031 130.453125 -41.1875 Z M 130.453125 -41.1875 "/></g></g></g><g fill="#377850" fill-opacity="1"><g transform="translate(654.924842, 302.808474)"><g><path d="M 109.453125 4.03125 C 89.796875 4.03125 72.765625 -0.273438 58.359375 -8.890625 C 43.953125 -17.503906 32.910156 -29.015625 25.234375 -43.421875 C 17.566406 -57.828125 13.734375 -73.507812 13.734375 -90.46875 C 13.734375 -110.925781 18.375 -129.234375 27.65625 -145.390625 C 36.945312 -161.546875 49.46875 -174.269531 65.21875 -183.5625 C 80.976562 -192.851562 98.414062 -197.5 117.53125 -197.5 C 134.21875 -197.5 148.550781 -194.332031 160.53125 -188 C 172.519531 -181.675781 181.675781 -173.460938 188 -163.359375 C 194.332031 -153.265625 197.5 -142.695312 197.5 -131.65625 C 197.5 -123.3125 195.273438 -117.050781 190.828125 -112.875 C 186.390625 -108.707031 181.070312 -106.625 174.875 -106.625 C 167.601562 -106.625 162.285156 -108.910156 158.921875 -113.484375 C 155.554688 -118.066406 152.929688 -123.453125 151.046875 -129.640625 C 147.546875 -142.835938 142.296875 -153.675781 135.296875 -162.15625 C 128.296875 -170.632812 118.46875 -175.007812 105.8125 -175.28125 C 90.738281 -175.28125 78.957031 -169.554688 70.46875 -158.109375 C 61.988281 -146.671875 57.75 -132.203125 57.75 -114.703125 C 57.75 -97.734375 60.710938 -82.785156 66.640625 -69.859375 C 72.566406 -56.941406 80.910156 -46.914062 91.671875 -39.78125 C 102.441406 -32.644531 114.960938 -29.078125 129.234375 -29.078125 C 142.160156 -29.078125 153.066406 -31.769531 161.953125 -37.15625 C 170.835938 -42.539062 178.78125 -48.597656 185.78125 -55.328125 C 189.550781 -59.097656 193.117188 -59.972656 196.484375 -57.953125 C 199.847656 -55.929688 200.453125 -52.226562 198.296875 -46.84375 C 195.609375 -39.84375 190.628906 -32.367188 183.359375 -24.421875 C 176.085938 -16.484375 166.394531 -9.753906 154.28125 -4.234375 C 142.164062 1.273438 127.222656 4.03125 109.453125 4.03125 Z M 109.453125 4.03125 "/></g></g></g><g fill="#377850" fill-opacity="1"><g transform="translate(839.03595, 302.808474)"><g><path d="M 218.5 -114.703125 L 218.90625 -54.515625 C 218.90625 -45.097656 219.910156 -38.097656 221.921875 -33.515625 C 223.941406 -28.941406 226.226562 -25.578125 228.78125 -23.421875 C 231.34375 -21.265625 233.566406 -19.3125 235.453125 -17.5625 C 237.335938 -15.8125 238.28125 -12.921875 238.28125 -8.890625 C 238.28125 -5.390625 236.800781 -3.03125 233.84375 -1.8125 C 230.882812 -0.601562 226.847656 0 221.734375 0 L 170.84375 0 C 165.726562 0 161.617188 -0.671875 158.515625 -2.015625 C 155.421875 -3.359375 153.875 -5.785156 153.875 -9.296875 C 153.875 -13.054688 154.882812 -15.8125 156.90625 -17.5625 C 158.925781 -19.3125 161.210938 -21.265625 163.765625 -23.421875 C 166.328125 -25.578125 168.550781 -28.941406 170.4375 -33.515625 C 172.320312 -38.097656 173.265625 -45.097656 173.265625 -54.515625 L 173.265625 -109.046875 C 173.265625 -126.003906 170.097656 -140.335938 163.765625 -152.046875 C 157.441406 -163.765625 146.335938 -169.488281 130.453125 -169.21875 C 118.867188 -168.945312 108.5 -164.503906 99.34375 -155.890625 C 90.195312 -147.273438 84.546875 -134.488281 82.390625 -117.53125 L 82.390625 -54.515625 C 82.390625 -45.097656 83.332031 -38.097656 85.21875 -33.515625 C 87.101562 -28.941406 89.320312 -25.578125 91.875 -23.421875 C 94.4375 -21.265625 96.660156 -19.3125 98.546875 -17.5625 C 100.429688 -15.8125 101.375 -12.921875 101.375 -8.890625 C 101.375 -5.390625 99.957031 -3.03125 97.125 -1.8125 C 94.300781 -0.601562 90.195312 0 84.8125 0 L 33.921875 0 C 28.804688 0 24.703125 -0.671875 21.609375 -2.015625 C 18.515625 -3.359375 16.96875 -5.785156 16.96875 -9.296875 C 16.96875 -13.054688 17.972656 -15.8125 19.984375 -17.5625 C 22.003906 -19.3125 24.289062 -21.265625 26.84375 -23.421875 C 29.40625 -25.578125 31.695312 -28.941406 33.71875 -33.515625 C 35.738281 -38.097656 36.75 -45.097656 36.75 -54.515625 L 36.75 -220.515625 C 36.75 -228.328125 35.738281 -234.25 33.71875 -238.28125 C 31.695312 -242.320312 29.40625 -245.285156 26.84375 -247.171875 C 24.289062 -249.054688 22.003906 -250.804688 19.984375 -252.421875 C 17.972656 -254.035156 16.96875 -256.457031 16.96875 -259.6875 C 16.96875 -262.113281 17.773438 -264.132812 19.390625 -265.75 C 21.003906 -267.363281 24.234375 -269.25 29.078125 -271.40625 C 37.691406 -275.445312 46.578125 -278.945312 55.734375 -281.90625 C 64.890625 -284.863281 70.945312 -286.476562 73.90625 -286.75 C 79.832031 -287.019531 82.796875 -283.519531 82.796875 -276.25 L 82.390625 -220.515625 L 82.390625 -166.390625 C 90.734375 -177.160156 100.492188 -185.101562 111.671875 -190.21875 C 122.847656 -195.34375 134.359375 -197.90625 146.203125 -197.90625 C 169.359375 -197.90625 187.195312 -190.769531 199.71875 -176.5 C 212.238281 -162.226562 218.5 -141.628906 218.5 -114.703125 Z M 218.5 -114.703125 "/></g></g></g><g fill="#377850" fill-opacity="1"><g transform="translate(1061.908903, 302.808474)"><g><path d="M 145.796875 -197.90625 C 161.953125 -197.90625 176.15625 -193.929688 188.40625 -185.984375 C 200.65625 -178.035156 210.28125 -166.925781 217.28125 -152.65625 C 224.28125 -138.394531 227.78125 -121.835938 227.78125 -102.984375 C 227.78125 -80.910156 223.609375 -61.929688 215.265625 -46.046875 C 206.921875 -30.160156 196.015625 -17.90625 182.546875 -9.28125 C 169.085938 -0.664062 154.6875 3.769531 139.34375 4.03125 C 128.03125 4.300781 117.191406 2.554688 106.828125 -1.203125 C 96.460938 -4.972656 87.507812 -9.421875 79.96875 -14.546875 L 80.375 26.25 C 80.375 35.675781 81.316406 42.675781 83.203125 47.25 C 85.085938 51.832031 87.304688 55.195312 89.859375 57.34375 C 92.421875 59.5 94.644531 61.453125 96.53125 63.203125 C 98.414062 64.953125 99.359375 67.847656 99.359375 71.890625 C 99.359375 75.390625 97.941406 77.742188 95.109375 78.953125 C 92.285156 80.171875 88.179688 80.78125 82.796875 80.78125 L 31.90625 80.78125 C 26.789062 80.78125 22.679688 80.171875 19.578125 78.953125 C 16.484375 77.742188 14.9375 75.390625 14.9375 71.890625 C 14.9375 67.847656 15.945312 64.953125 17.96875 63.203125 C 19.988281 61.453125 22.273438 59.5 24.828125 57.34375 C 27.390625 55.195312 29.679688 51.832031 31.703125 47.25 C 33.722656 42.675781 34.734375 35.675781 34.734375 26.25 L 33.921875 -134.890625 C 33.921875 -141.085938 33.046875 -146.40625 31.296875 -150.84375 C 29.546875 -155.289062 26.382812 -158.992188 21.8125 -161.953125 C 19.925781 -163.296875 18.242188 -164.773438 16.765625 -166.390625 C 15.285156 -168.003906 14.546875 -170.023438 14.546875 -172.453125 C 14.546875 -175.410156 15.351562 -177.695312 16.96875 -179.3125 C 18.582031 -180.9375 21.8125 -182.820312 26.65625 -184.96875 C 33.925781 -188.46875 41.664062 -191.429688 49.875 -193.859375 C 58.09375 -196.285156 63.679688 -197.632812 66.640625 -197.90625 C 72.296875 -198.4375 75.125 -194.929688 75.125 -187.390625 L 74.71875 -158.71875 C 81.445312 -168.945312 90.597656 -178.035156 102.171875 -185.984375 C 113.753906 -193.929688 128.296875 -197.90625 145.796875 -197.90625 Z M 137.71875 -17.765625 C 148.488281 -17.765625 157.171875 -20.859375 163.765625 -27.046875 C 170.367188 -33.242188 175.285156 -41.390625 178.515625 -51.484375 C 181.742188 -61.585938 183.359375 -72.160156 183.359375 -83.203125 C 183.359375 -109.859375 178.039062 -130.722656 167.40625 -145.796875 C 156.769531 -160.878906 143.914062 -168.421875 128.84375 -168.421875 C 118.601562 -168.421875 109.78125 -165.457031 102.375 -159.53125 C 94.976562 -153.601562 89.394531 -146.128906 85.625 -137.109375 C 81.851562 -128.085938 79.96875 -118.734375 79.96875 -109.046875 L 79.96875 -81.578125 C 80.238281 -68.117188 83.265625 -56.609375 89.046875 -47.046875 C 94.835938 -37.492188 102.175781 -30.222656 111.0625 -25.234375 C 119.945312 -20.253906 128.832031 -17.765625 137.71875 -17.765625 Z M 137.71875 -17.765625 "/></g></g></g><g fill="#377850" fill-opacity="1"><g transform="translate(1276.706431, 302.808474)"><g><path d="M 36.75 -54.515625 L 36.75 -220.515625 C 36.75 -228.328125 35.738281 -234.25 33.71875 -238.28125 C 31.695312 -242.320312 29.40625 -245.285156 26.84375 -247.171875 C 24.289062 -249.054688 22.003906 -250.804688 19.984375 -252.421875 C 17.972656 -254.035156 16.96875 -256.457031 16.96875 -259.6875 C 16.96875 -262.113281 17.773438 -264.132812 19.390625 -265.75 C 21.003906 -267.363281 24.234375 -269.25 29.078125 -271.40625 C 37.691406 -275.445312 46.578125 -278.945312 55.734375 -281.90625 C 64.890625 -284.863281 70.945312 -286.476562 73.90625 -286.75 C 79.832031 -287.019531 82.796875 -283.519531 82.796875 -276.25 L 82.390625 -220.515625 L 82.390625 -54.515625 C 82.390625 -45.097656 83.332031 -38.097656 85.21875 -33.515625 C 87.101562 -28.941406 89.320312 -25.578125 91.875 -23.421875 C 94.4375 -21.265625 96.660156 -19.3125 98.546875 -17.5625 C 100.429688 -15.8125 101.375 -12.921875 101.375 -8.890625 C 101.375 -5.390625 99.957031 -3.03125 97.125 -1.8125 C 94.300781 -0.601562 90.195312 0 84.8125 0 L 33.921875 0 C 28.804688 0 24.703125 -0.671875 21.609375 -2.015625 C 18.515625 -3.359375 16.96875 -5.785156 16.96875 -9.296875 C 16.96875 -13.054688 17.972656 -15.8125 19.984375 -17.5625 C 22.003906 -19.3125 24.289062 -21.265625 26.84375 -23.421875 C 29.40625 -25.578125 31.695312 -28.941406 33.71875 -33.515625 C 35.738281 -38.097656 36.75 -45.097656 36.75 -54.515625 Z M 36.75 -54.515625 "/></g></g></g><g fill="#377850" fill-opacity="1"><g transform="translate(1367.142993, 302.808474)"><g><path d="M 188.203125 -123.578125 L 188.203125 -50.890625 C 188.203125 -42.546875 189.476562 -36.890625 192.03125 -33.921875 C 194.59375 -30.960938 197.625 -29.347656 201.125 -29.078125 C 204.625 -28.804688 207.648438 -28.535156 210.203125 -28.265625 C 212.765625 -28.003906 214.046875 -26.390625 214.046875 -23.421875 C 214.046875 -19.648438 212.226562 -15.742188 208.59375 -11.703125 C 204.96875 -7.671875 200.460938 -4.375 195.078125 -1.8125 C 189.691406 0.738281 184.171875 2.015625 178.515625 2.015625 C 170.972656 2.015625 164.238281 0 158.3125 -4.03125 C 152.394531 -8.070312 148.359375 -15.882812 146.203125 -27.46875 C 137.316406 -16.425781 126.945312 -8.476562 115.09375 -3.625 C 103.25 1.21875 91.132812 3.640625 78.75 3.640625 C 65.289062 3.640625 53.175781 1.082031 42.40625 -4.03125 C 31.632812 -9.15625 23.148438 -16.289062 16.953125 -25.4375 C 10.765625 -34.59375 7.671875 -45.226562 7.671875 -57.34375 C 7.671875 -70.269531 11.304688 -81.710938 18.578125 -91.671875 C 25.847656 -101.640625 36.078125 -109.382812 49.265625 -114.90625 C 62.460938 -120.425781 77.8125 -123.1875 95.3125 -123.1875 C 101.507812 -123.1875 108.914062 -122.710938 117.53125 -121.765625 C 126.144531 -120.828125 135.164062 -118.472656 144.59375 -114.703125 C 143.507812 -134.085938 138.660156 -147.75 130.046875 -155.6875 C 121.429688 -163.632812 109.046875 -167.609375 92.890625 -167.609375 C 83.203125 -167.609375 74.519531 -166.257812 66.84375 -163.5625 C 59.164062 -160.875 51.425781 -157.242188 43.625 -152.671875 C 39.851562 -150.242188 36.550781 -150.171875 33.71875 -152.453125 C 30.894531 -154.742188 30.960938 -158.316406 33.921875 -163.171875 C 37.421875 -168.285156 42.941406 -173.46875 50.484375 -178.71875 C 58.023438 -183.96875 67.046875 -188.410156 77.546875 -192.046875 C 88.046875 -195.679688 99.21875 -197.5 111.0625 -197.5 C 137.445312 -197.5 156.898438 -190.5625 169.421875 -176.6875 C 181.941406 -162.820312 188.203125 -145.117188 188.203125 -123.578125 Z M 95.71875 -21.8125 C 103.789062 -21.8125 111.53125 -23.695312 118.9375 -27.46875 C 126.34375 -31.238281 132.46875 -35.878906 137.3125 -41.390625 C 142.164062 -46.910156 144.59375 -52.5 144.59375 -58.15625 C 144.59375 -63.269531 144.59375 -67.507812 144.59375 -70.875 C 144.59375 -74.238281 144.457031 -79.691406 144.1875 -87.234375 C 143.914062 -91.816406 139.601562 -95.722656 131.25 -98.953125 C 122.90625 -102.179688 112.945312 -103.796875 101.375 -103.796875 C 86.289062 -103.796875 74.035156 -100.09375 64.609375 -92.6875 C 55.191406 -85.28125 50.617188 -75.117188 50.890625 -62.203125 C 51.429688 -49.816406 55.601562 -39.988281 63.40625 -32.71875 C 71.21875 -25.445312 81.988281 -21.8125 95.71875 -21.8125 Z M 95.71875 -21.8125 "/></g></g></g><g fill="#377850" fill-opacity="1"><g transform="translate(1565.789831, 302.808474)"><g><path d="M 176.890625 -193.859375 L 202.34375 -193.859375 C 207.457031 -193.859375 211.5625 -193.25 214.65625 -192.03125 C 217.75 -190.820312 219.296875 -188.46875 219.296875 -184.96875 C 219.296875 -181.738281 218.421875 -179.25 216.671875 -177.5 C 214.921875 -175.75 212.632812 -173.726562 209.8125 -171.4375 C 206.988281 -169.15625 203.957031 -165.925781 200.71875 -161.75 C 197.488281 -157.570312 194.257812 -151.445312 191.03125 -143.375 L 138.9375 -8.890625 C 131.664062 9.960938 124.53125 26.457031 117.53125 40.59375 C 110.53125 54.726562 102.179688 65.628906 92.484375 73.296875 C 82.796875 80.972656 69.875 84.8125 53.71875 84.8125 C 41.601562 84.8125 31.4375 81.710938 23.21875 75.515625 C 15.007812 69.328125 10.90625 61.519531 10.90625 52.09375 C 10.90625 45.90625 12.851562 40.253906 16.75 35.140625 C 20.65625 30.023438 25.976562 27.46875 32.71875 27.46875 C 37.832031 27.46875 41.9375 28.945312 45.03125 31.90625 C 48.125 34.863281 50.945312 38.363281 53.5 42.40625 C 56.0625 46.445312 58.890625 50.015625 61.984375 53.109375 C 65.085938 56.203125 69.0625 57.75 73.90625 57.75 C 80.632812 57.75 86.21875 53.578125 90.65625 45.234375 C 95.101562 36.890625 97.328125 27.734375 97.328125 17.765625 C 97.328125 12.378906 96.65625 7.332031 95.3125 2.625 C 93.96875 -2.082031 92.351562 -6.863281 90.46875 -11.71875 L 38.375 -143.375 C 35.132812 -151.445312 31.832031 -157.570312 28.46875 -161.75 C 25.101562 -165.925781 22.070312 -169.15625 19.375 -171.4375 C 16.6875 -173.726562 14.46875 -175.75 12.71875 -177.5 C 10.96875 -179.25 10.09375 -181.738281 10.09375 -184.96875 C 10.09375 -188.738281 11.570312 -191.160156 14.53125 -192.234375 C 17.5 -193.316406 21.539062 -193.859375 26.65625 -193.859375 L 79.96875 -193.859375 C 85.351562 -193.859375 89.59375 -193.25 92.6875 -192.03125 C 95.78125 -190.820312 97.328125 -188.46875 97.328125 -184.96875 C 97.328125 -181.738281 96.179688 -179.25 93.890625 -177.5 C 91.609375 -175.75 89.320312 -173.726562 87.03125 -171.4375 C 84.75 -169.15625 83.269531 -165.925781 82.59375 -161.75 C 81.914062 -157.570312 83.191406 -151.445312 86.421875 -143.375 L 128.03125 -36.75 L 169.21875 -143.375 C 172.445312 -151.445312 173.789062 -157.640625 173.25 -161.953125 C 172.71875 -166.265625 171.441406 -169.492188 169.421875 -171.640625 C 167.398438 -173.796875 165.378906 -175.75 163.359375 -177.5 C 161.347656 -179.25 160.34375 -181.738281 160.34375 -184.96875 C 160.34375 -188.738281 161.820312 -191.160156 164.78125 -192.234375 C 167.738281 -193.316406 171.773438 -193.859375 176.890625 -193.859375 Z M 176.890625 -193.859375 "/></g></g></g><g fill="#377850" fill-opacity="1"><g transform="translate(1762.07034, 302.808474)"><g/></g></g></g></g></g></g></g></g></svg>